<svg xmlns="http://www.w3.org/2000/svg" viewBox="0 0 200 200"><path d="M147 145.158c-7.612 0-13.805-6.193-13.805-13.804 0-7.612 6.193-13.805 13.804-13.805 7.612 0 13.805 6.209 13.805 13.805 0 7.61-6.193 13.804-13.805 13.804zm0-21.94c-4.484 0-8.136 3.652-8.136 8.136 0 4.483 3.652 8.134 8.135 8.134 4.484 0 8.12-3.651 8.135-8.134 0-4.484-3.651-8.135-8.135-8.135zm13.034-30.552a2.79 2.79 0 0 1-1.664-.539c-1.263-.924-1.556-2.696-.632-3.96l10.8-14.868a12.697 12.697 0 0 1 10.139-5.1h18.473a2.837 2.837 0 0 1 2.835 2.836 2.847 2.847 0 0 1-2.835 2.835h-18.473a6.962 6.962 0 0 0-5.532 2.757l-7.518 10.37h31.538A2.837 2.837 0 0 1 200 89.83a2.847 2.847 0 0 1-2.835 2.835H160.05z"/><path d="M52.97 145.158c-7.611 0-13.805-6.209-13.805-13.804 0-7.612 6.194-13.805 13.805-13.805 7.61 0 13.805 6.193 13.805 13.805 0 7.61-6.194 13.804-13.805 13.804zm0-21.94c-4.484 0-8.12 3.652-8.135 8.136 0 4.483 3.651 8.134 8.135 8.134 4.483 0 8.135-3.651 8.135-8.134 0-4.484-3.652-8.135-8.135-8.135zm61.767 9.399a10.894 10.894 0 0 1-9.938-6.425c-2.31-5.5-1.248-11.509-.323-16.824l.138-.817c.786-4.484 2.373-10.908 7.134-15.053a20.61 20.61 0 0 1 12.08-4.622 47.784 47.784 0 0 1 2.957-.092c.832 0 1.68.015 2.512.061.785.031 1.818.046 2.788.046 4.222 0 7.242-.493 9.152-2.88l.139.107.17-.262c1.309-2.049 5.037-7.102 15.006-20.63 4.915-6.502 12.726-10.384 20.877-10.384h19.69a2.837 2.837 0 0 1 2.835 2.835 2.847 2.847 0 0 1-2.835 2.835h-19.706c-6.348 0-12.449 3.02-16.285 8.073l-1.264 1.71c-4.683 6.348-13.388 18.165-13.835 18.797l-.031.046c-3.528 4.792-8.936 5.439-13.759 5.439-1.063 0-2.11-.031-3.112-.062a39.083 39.083 0 0 0-2.326-.062c-.832 0-1.68.031-2.512.062-3.22.139-6.255 1.263-8.813 3.236-3.374 2.942-4.59 7.826-5.284 11.755l-.139.832c-.832 4.761-1.695 9.691-.03 13.65a5.374 5.374 0 0 0 4.806 2.928h6.21l.046-.246c1.926-10.8 10.477-19.352 21.277-21.278a26.257 26.257 0 0 1 4.653-.415c12.757 0 23.634 9.12 25.868 21.693l.047.246h24.189a2.837 2.837 0 0 1 2.835 2.835 2.847 2.847 0 0 1-2.835 2.835h-26.7c-.186 0-.37-.015-.555-.062-.031 0-.062 0-.077-.03a.219.219 0 0 1-.093-.031c-.123-.031-.246-.062-.354-.108-.031 0-.077-.03-.108-.062l-.092-.046a1.605 1.605 0 0 1-.278-.154c-.03-.015-.077-.062-.108-.092l-.061-.062a.985.985 0 0 1-.231-.2c-.031-.031-.062-.077-.093-.108l-.046-.062a2.712 2.712 0 0 1-.2-.23c-.031-.047-.062-.093-.077-.14l-.031-.061c-.046-.093-.108-.17-.139-.262a.56.56 0 0 1-.061-.17v-.061c-.062-.093-.078-.185-.108-.278a.91.91 0 0 1-.031-.215v-.046s-.016-.077-.031-.108v-.093c-.678-10.276-8.952-18.55-19.243-19.243a20.84 20.84 0 0 0-1.387-.046c-10.831 0-19.875 8.473-20.584 19.29a2.879 2.879 0 0 1-2.835 2.65h-8.813zM2.835 92.667A2.837 2.837 0 0 1 0 89.83a2.847 2.847 0 0 1 2.835-2.835h31.538L26.84 76.627a6.984 6.984 0 0 0-5.53-2.757H2.834A2.837 2.837 0 0 1 0 71.035 2.847 2.847 0 0 1 2.835 68.2h18.473c3.975 0 7.765 1.91 10.138 5.1l10.8 14.867a2.837 2.837 0 0 1-2.296 4.499H2.85Z"/><path d="M85.078 132.632H76.42c-1.479-.03-2.696-1.186-2.835-2.665-.74-10.785-9.783-19.259-20.614-19.274-10.816.015-19.875 8.489-20.615 19.29a2.939 2.939 0 0 1-2.835 2.65H2.835A2.837 2.837 0 0 1 0 129.796a2.847 2.847 0 0 1 2.835-2.835h24.19l.045-.246c1.926-10.8 10.477-19.351 21.278-21.277a26.257 26.257 0 0 1 4.653-.416c12.757 0 23.634 9.12 25.868 21.693l.046.246h6.287a5.283 5.283 0 0 0 4.73-2.911c1.679-3.99.816-8.906-.031-13.667l-.139-.832c-.693-3.928-1.91-8.812-5.27-11.74a15.39 15.39 0 0 0-8.828-3.25 45.533 45.533 0 0 0-2.51-.062c-.771 0-1.557.015-2.343.061a99.207 99.207 0 0 1-3.097.062c-4.822 0-10.23-.647-13.758-5.423 0-.016-.016-.031-.031-.047-.555-.77-13.62-18.504-15.099-20.522-3.852-5.053-9.938-8.073-16.3-8.073H2.834A2.837 2.837 0 0 1 0 57.723a2.847 2.847 0 0 1 2.835-2.835h19.69c8.15 0 15.962 3.883 20.877 10.384l.139.185c9.876 13.404 13.573 18.412 14.867 20.445l.17.262.139-.107c1.925 2.388 4.945 2.88 9.167 2.88.97 0 1.987-.03 2.773-.046.832-.046 1.68-.061 2.511-.061.987 0 1.973.03 2.959.092a20.694 20.694 0 0 1 12.094 4.622c4.761 4.13 6.348 10.57 7.134 15.038l.138.816c.925 5.316 1.988 11.325-.323 16.825-1.757 3.898-5.67 6.41-9.953 6.41zm21.955-46.221c-.446 0-.862-.108-1.263-.293a2.782 2.782 0 0 1-1.417-1.648 2.872 2.872 0 0 1 .154-2.173l6.27-12.541a2.822 2.822 0 0 1 2.542-1.572c.447 0 .863.108 1.264.293a2.825 2.825 0 0 1 1.263 3.806l-6.27 12.541a2.822 2.822 0 0 1-2.543 1.572zm-14.097 0a2.84 2.84 0 0 1-2.542-1.572l-6.271-12.541a2.836 2.836 0 0 1 1.248-3.79h.03a2.597 2.597 0 0 1 1.264-.308c1.079 0 2.05.6 2.542 1.571l6.271 12.542c.339.678.4 1.448.154 2.172a2.88 2.88 0 0 1-1.417 1.649c-.401.2-.832.292-1.264.292zm7.056-6.27a2.837 2.837 0 0 1-2.835-2.836v-9.398a2.837 2.837 0 0 1 2.835-2.835 2.847 2.847 0 0 1 2.835 2.835v9.398a2.837 2.837 0 0 1-2.835 2.835z"/></svg>