<svg xmlns="http://www.w3.org/2000/svg" viewBox="0 0 200 200"><path d="M45.413 168.366a3.53 3.53 0 0 1-2.304-.836c-1.53-1.264-1.754-3.549-.49-5.078l31.573-38.263H30.157c-7.403 0-13.44-6.016-13.44-13.44 0-7.425 6.016-13.441 13.44-13.441h16.419a3.604 3.604 0 0 1 3.61 3.61 3.604 3.604 0 0 1-3.61 3.61H30.157c-3.426 0-6.2 2.794-6.2 6.2s2.794 6.2 6.2 6.2H81.86a3.6 3.6 0 0 1 3.264 2.08 3.601 3.601 0 0 1-.49 3.835L48.187 167.02a3.639 3.639 0 0 1-2.794 1.306z"/><path d="M81.085 165.633a3.568 3.568 0 0 1-1.937-.57c-1.693-1.061-2.183-3.305-1.102-4.998l25.679-40.363a9.004 9.004 0 0 0 1.427-4.874c0-5.67-4.61-10.3-10.3-10.3h-18.64a3.604 3.604 0 0 1-3.61-3.61 3.604 3.604 0 0 1 3.61-3.61h18.642c9.667 0 17.52 7.852 17.52 17.52 0 3.1-.878 6.139-2.55 8.75L84.145 163.94a3.62 3.62 0 0 1-3.06 1.673z"/><path d="M8.722 170.997a3.623 3.623 0 0 1-3.61-3.426 3.608 3.608 0 0 1 3.426-3.794l88.007-4.466c1.979-.123 3.692 1.427 3.794 3.426a3.608 3.608 0 0 1-3.427 3.794l-88.007 4.466h-.183zm76.891 24.108H8.722a3.604 3.604 0 0 1-3.61-3.61 3.604 3.604 0 0 1 3.61-3.61h76.891a3.604 3.604 0 0 1 3.61 3.61 3.604 3.604 0 0 1-3.61 3.61zm62.595-24.108a3.738 3.738 0 0 1-1.714-.428l-4.038-2.182c-3.386-1.816-16.826-3.223-22.272-3.223a3.604 3.604 0 0 1-3.61-3.61 3.604 3.604 0 0 1 3.61-3.61c3.834 0 20.049 1.02 25.719 4.08l4.038 2.182a3.628 3.628 0 0 1 1.469 4.895 3.623 3.623 0 0 1-3.182 1.896z"/><path d="M156.672 200H95.22a11.323 11.323 0 0 1-9.668-5.364 11.32 11.32 0 0 1-.571-11.034l15.174-31.063c2.04-4.16 6.343-6.853 10.973-6.853 4.202 0 8.057 2.121 10.3 5.67 2.244 3.55 2.53 7.934.755 11.728l-9.709 20.722c-.836 1.815-2.998 2.59-4.813 1.733a3.606 3.606 0 0 1-1.734-4.813l9.709-20.722c.734-1.57.632-3.324-.306-4.793-.938-1.468-2.468-2.305-4.202-2.305a5.037 5.037 0 0 0-4.487 2.795l-15.174 31.062c-.653 1.326-.571 2.794.204 4.039.775 1.244 2.06 1.958 3.549 1.958h61.452a3.604 3.604 0 0 1 3.61 3.61 3.604 3.604 0 0 1-3.61 3.61zm-39.69-58.576c-.143 0-.265 0-.408-.02a3.618 3.618 0 0 1-3.182-3.998l7.975-70.325a20.74 20.74 0 0 0-2.121-11.809l-7.526-10.667a3.626 3.626 0 0 1 .877-5.037c1.631-1.163 3.875-.755 5.037.877l7.69 10.87c.102.143.183.266.244.408a27.992 27.992 0 0 1 3.019 16.174l-7.975 70.345c-.204 1.836-1.774 3.202-3.59 3.202zM69.338 120.64a12.73 12.73 0 0 1-8.363-3.12L32.523 93.025c-6.71-5.793-7.872-15.909-2.63-23.068l23.862-32.551c3.957-5.405 10.32-8.73 17.01-8.893l12.482-.285c2.08-.041 3.651 1.53 3.692 3.528a3.605 3.605 0 0 1-3.528 3.692l-12.462.285c-4.467.102-8.71 2.325-11.36 5.935L35.724 74.22c-3.018 4.12-2.365 9.973 1.51 13.318l28.452 24.495a5.601 5.601 0 0 0 7.75-.428 5.469 5.469 0 0 0 1.489-4.14 5.56 5.56 0 0 0-1.978-3.937L48.983 83.276a3.616 3.616 0 0 1-.51-4.997l15.337-19.52c1.224-1.57 3.508-1.835 5.079-.61 1.57 1.223 1.835 3.507.612 5.078L56.305 79.992l21.293 18.01c2.712 2.284 4.303 5.486 4.528 9.035.204 3.528-1 6.914-3.427 9.504a12.811 12.811 0 0 1-9.382 4.1zm32.062-14.46c-.143 0-.306 0-.45-.02a3.623 3.623 0 0 1-3.14-4.039l3.671-29.553a3.612 3.612 0 0 1 4.038-3.141 3.623 3.623 0 0 1 3.141 4.038l-3.67 29.554a3.595 3.595 0 0 1-3.59 3.16z"/><path d="M123.366 185.927h-13.563a3.604 3.604 0 0 1-3.61-3.61 3.604 3.604 0 0 1 3.61-3.61h13.563a3.604 3.604 0 0 1 3.61 3.61 3.604 3.604 0 0 1-3.61 3.61zM105.05 45.442c-12.523 0-22.72-10.198-22.72-22.721S92.527 0 105.05 0s22.721 10.198 22.721 22.72c0 12.524-10.198 22.722-22.72 22.722zm0-38.915c-8.933 0-16.214 7.26-16.214 16.214 0 8.954 7.26 16.215 16.214 16.215 8.954 0 16.215-7.261 16.215-16.215S114.004 6.527 105.05 6.527zm67.123 192.27c-12.523 0-22.721-10.198-22.721-22.721s10.198-22.72 22.72-22.72c12.523 0 22.721 10.197 22.721 22.72s-10.198 22.72-22.72 22.72zm0-38.915c-8.934 0-16.215 7.26-16.215 16.214 0 8.954 7.26 16.215 16.215 16.215 8.953 0 16.214-7.261 16.214-16.215 0-8.953-7.26-16.214-16.214-16.214z"/></svg>