<svg xmlns="http://www.w3.org/2000/svg" viewBox="0 0 200 200"><path d="M186.181 40.115h-68.6a23.646 23.646 0 0 0 6.192-13.647c.688-6.353-1.147-12.592-5.138-17.546A23.83 23.83 0 0 0 99.99 0c-5.414 0-10.735 1.88-14.98 5.275-10.275 8.257-11.903 23.326-3.646 33.601.344.413.688.826 1.055 1.239h-68.6c-3.693 0-7.156 1.445-9.77 4.036C1.432 46.766.01 50.23.01 53.922c0 7.615 6.193 13.807 13.808 13.807h60.917v41.4l-66.284 66.26c-2.982 2.96-4.564 7.065-4.38 11.262a13.9 13.9 0 0 0 5.274 10.207A14.22 14.22 0 0 0 18.291 200c3.808 0 7.386-1.49 10.092-4.174l60.573-60.574h41.262c2.867 0 5.183 2.34 5.206 5.207v45.252c0 7.867 6.4 14.266 14.266 14.266 7.867 0 14.266-6.399 14.266-14.266v-47.179c0-17.5-14.289-31.766-31.789-31.789h-6.903V67.73h60.917c3.693 0 7.156-1.445 9.77-4.036 2.616-2.615 4.038-6.078 4.038-9.771 0-7.615-6.193-13.807-13.808-13.807zm-36.903 8.096h36.903c3.142 0 5.711 2.569 5.711 5.711 0 3.142-2.569 5.711-5.71 5.711h-36.904v-11.4Zm6.582 137.5a6.147 6.147 0 0 1-12.293 0v-45.252c0-7.317-5.987-13.28-13.303-13.303H87.305c-1.078 0-2.087.436-2.867 1.193l-61.72 61.72a6.16 6.16 0 0 1-4.38 1.812c-1.4 0-2.776-.482-3.877-1.376a5.886 5.886 0 0 1-2.225-4.312 6.641 6.641 0 0 1 2.019-5.092l66.261-66.284h51.674c13.05 0 23.67 10.642 23.693 23.692v47.18zM100.011 8.142V6.79v1.353c8.716 0 15.803 7.087 15.78 15.803 0 8.693-7.087 15.78-15.78 15.78-8.715 0-15.802-7.087-15.802-15.803 0-8.693 7.087-15.78 15.78-15.78zm17.156 55.528v43.073H82.901V63.67c0-2.225-1.812-4.037-4.06-4.06H58.889V48.211h82.293v11.4h-19.954c-2.225 0-4.037 1.811-4.06 4.059zM13.865 48.21h36.903v11.4H13.865c-3.143 0-5.711-2.57-5.711-5.712s2.568-5.71 5.71-5.71z"/></svg>