<svg xmlns="http://www.w3.org/2000/svg" viewBox="0 0 200 200"><path d="M80.23 165.096a3.566 3.566 0 0 1-3.006-1.604c-2.58-3.817-9.163-16.466-9.938-22.182l-.627-4.573a19.62 19.62 0 0 0-2.176-6.656l-.608-1.125c-2.102-3.927-3.227-8.315-3.227-12.704V97.334c0-20.706 17.978-37.54 40.086-37.54 22.107 0 40.085 16.852 40.085 37.54v18.07c0 5.034-1.438 9.975-4.149 14.308-1.512 2.416-2.489 5.07-2.858 7.837l-.516 3.743c-.83 6.084-7.339 17.461-9.92 20.983a3.642 3.642 0 0 1-2.913 1.475 3.58 3.58 0 0 1-2.14-.7 3.633 3.633 0 0 1-1.437-2.38 3.591 3.591 0 0 1 .664-2.691c2.489-3.393 8.039-13.7 8.573-17.665l.517-3.761c.516-3.798 1.844-7.412 3.909-10.713 1.991-3.171 3.042-6.785 3.042-10.454v-18.07c0-16.705-14.732-30.295-32.839-30.295s-32.839 13.59-32.839 30.295v18.918c0 3.19.811 6.398 2.36 9.274l.609 1.125c1.53 2.858 2.544 5.919 2.968 9.109l.627 4.572c.516 3.725 6.066 15.12 8.777 19.121a3.63 3.63 0 0 1 .553 2.71 3.564 3.564 0 0 1-1.53 2.306 3.654 3.654 0 0 1-2.029.626z"/><path d="M28.178 200a3.586 3.586 0 0 1-3.43-2.49c-.295-.921-.24-1.898.203-2.765a3.573 3.573 0 0 1 2.102-1.807l48.383-16.005.221-17.129c.019-1.586 1.107-3.005 2.637-3.448.332-.092.664-.13.996-.13 1.253 0 2.397.628 3.06 1.679.074.11 7.302 11.081 17.646 11.081 10.344 0 17.35-10.694 17.424-10.805a3.619 3.619 0 0 1 3.061-1.677c.332 0 .646.036.96.129a3.585 3.585 0 0 1 2.654 3.392l.424 16.872 48.42 16.004a3.57 3.57 0 0 1 2.102 1.807c.442.867.516 1.844.203 2.766a3.626 3.626 0 0 1-3.448 2.49c-.388 0-.775-.056-1.144-.185l-50.835-16.816a3.626 3.626 0 0 1-2.489-3.356l-.258-10.307-.571.48c-5.163 4.259-10.713 6.416-16.503 6.416-5.79 0-11.377-2.213-16.613-6.546l-.59-.498-.13 10.418a3.605 3.605 0 0 1-2.488 3.393L29.34 199.779c-.37.129-.756.184-1.144.184zM134.826 47.753a3.194 3.194 0 0 1-1.604-1.438 3.244 3.244 0 0 1 1.273-4.407l9.754-5.384-5.79-4.444a3.215 3.215 0 0 1-1.254-2.84 3.266 3.266 0 0 1 1.715-2.599l14.953-7.91a3.254 3.254 0 0 1 4.389 1.346c.83 1.586.24 3.54-1.346 4.388l-10.492 5.55 5.698 4.37a3.207 3.207 0 0 1 1.254 2.821 3.234 3.234 0 0 1-1.66 2.6l-14.087 7.781a3.265 3.265 0 0 1-2.803.166zm-68.499-2.36a3.122 3.122 0 0 1-1.844 1.106 3.24 3.24 0 0 1-3.835-2.507l-2.305-10.898-5.937 4.241a3.232 3.232 0 0 1-5.052-2.028l-3.171-16.613a3.257 3.257 0 0 1 2.581-3.798 3.257 3.257 0 0 1 3.798 2.581l2.231 11.653 5.845-4.167a3.295 3.295 0 0 1 3.061-.387 3.235 3.235 0 0 1 1.992 2.36l3.319 15.747a3.254 3.254 0 0 1-.664 2.728zm33.079-9.109c-.7.111-1.457 0-2.12-.387a3.252 3.252 0 0 1-1.217-4.425l5.513-9.68-7.247-.775a3.212 3.212 0 0 1-2.563-1.77 3.23 3.23 0 0 1 .111-3.116l8.63-14.548a3.242 3.242 0 0 1 5.568 3.319l-6.048 10.196 7.154.756a3.252 3.252 0 0 1 2.545 1.734 3.207 3.207 0 0 1-.074 3.079l-7.947 13.995a3.223 3.223 0 0 1-2.305 1.604z"/></svg>