<svg xmlns="http://www.w3.org/2000/svg" viewBox="0 0 52.917 52.917"><path d="M37.487 35.962a.955.955 0 0 1-.897-.638.942.942 0 0 1 .59-1.2l2.508-.857-.611-1.09a.961.961 0 0 1-.066-.786.955.955 0 0 1 .55-.561l3.218-1.222a.948.948 0 0 1 1.222.545.948.948 0 0 1-.545 1.221l-2.19.836.633 1.123a.937.937 0 0 1-.517 1.353l-3.581 1.227a.976.976 0 0 1-.308.05zm5.754 5.27h-.016l-3.796-.077a.942.942 0 0 1-.924-.962.938.938 0 0 1 .963-.925l2.657.055-.204-1.22a.946.946 0 0 1 .21-.766.948.948 0 0 1 .714-.34l3.45-.045h.01c.518 0 .936.413.947.93a.946.946 0 0 1-.935.957l-2.35.033.21 1.26a.946.946 0 0 1-.93 1.106zm2.597 7.383a.94.94 0 0 1-.583-.204l-1.86-1.452-.588 1.095a.947.947 0 0 1-1.441.275l-2.938-2.46c-.402-.335-.451-.929-.116-1.33s.93-.452 1.332-.116l2.046 1.716.572-1.061a.945.945 0 0 1 .638-.479.96.96 0 0 1 .776.182l2.74 2.145a.94.94 0 0 1 .16 1.326.946.946 0 0 1-.744.363zm-14.936 2.894Zm2.068-7.961a1.493 1.493 0 0 0-1.215-.748l-10.188-.55a1.447 1.447 0 0 1-.87-.347l-1.815-1.529a1.736 1.736 0 0 0-2.437.182l-1.49 1.689c-.1.11-.26.132-.37.055-1.309-.98-2.464-1.293-3.438-.93-.858.319-1.435 1.106-1.716 2.349-.446 1.98.27 3.185.952 3.845 1.436 1.392 3.895 1.552 5.187 1.216.77-.198 1.772-.264 2.68-.187a.35.35 0 0 1 .324.357c-.093 1.81 1.293 3.362 3.092 3.455l9.55.512h.082c.44 0 .853-.193 1.14-.534a1.51 1.51 0 0 0 .313-1.304c-.446-1.903-.77-4.092.192-5.963l.066-.132a1.51 1.51 0 0 0-.033-1.436zm-2.178 7.454-9.027-.484a1.387 1.387 0 0 1-1.304-1.469 2.23 2.23 0 0 0-2.041-2.343 10.03 10.03 0 0 0-.924-.039c-.842 0-1.69.094-2.393.276-.748.192-2.52.11-3.4-.743-.495-.479-.633-1.155-.424-2.074.121-.545.32-.913.529-.99.23-.088.803.038 1.65.67.891.666 2.173.529 2.916-.313l1.402-1.584 1.711 1.441a3.394 3.394 0 0 0 1.986.787l9.594.517c-.93 2.118-.698 4.357-.275 6.348zm2.965-14.347c-.649-1.837-1.21-3.983-.456-5.952l.055-.138a1.515 1.515 0 0 0-.187-1.424 1.5 1.5 0 0 0-1.288-.611l-10.182.578a1.495 1.495 0 0 1-.902-.248l-1.975-1.32a1.74 1.74 0 0 0-2.404.445l-1.299 1.843c-.088.121-.242.165-.363.094-1.408-.825-2.59-1.012-3.515-.55-.82.407-1.31 1.26-1.452 2.525-.231 2.019.616 3.135 1.364 3.719 1.579 1.226 4.043 1.11 5.287.638.742-.28 1.727-.462 2.64-.479.182 0 .347.138.358.32.05.874.434 1.677 1.083 2.266a3.23 3.23 0 0 0 2.179.836h.187l9.55-.54a1.483 1.483 0 0 0 1.16-.665c.26-.39.325-.891.171-1.331zm-10.98.65a1.364 1.364 0 0 1-.996-.353 1.397 1.397 0 0 1-.462-.962 2.226 2.226 0 0 0-2.239-2.102h-.05c-1.116.022-2.343.248-3.273.6-.72.275-2.497.385-3.46-.363-.539-.418-.753-1.078-.649-2.014.06-.555.22-.946.418-1.045.22-.11.803-.05 1.711.49.957.56 2.217.286 2.866-.633l1.221-1.733 1.86 1.243a3.39 3.39 0 0 0 2.063.567l9.594-.545c-.693 2.206-.22 4.407.418 6.338l-9.028.511zm8.813-7.416Zm1.304-8.065c-.974-1.689-1.92-3.691-1.546-5.76l.027-.148a1.49 1.49 0 0 0-.45-1.365 1.484 1.484 0 0 0-1.382-.357l-9.902 2.47c-.308.077-.638.05-.935-.072l-2.184-.93a1.742 1.742 0 0 0-2.277.886l-.941 2.052c-.06.138-.21.21-.341.16-1.535-.55-2.729-.512-3.554.115-.732.556-1.05 1.48-.963 2.751.149 2.024 1.183 2.965 2.025 3.4 1.777.913 4.18.34 5.32-.358.676-.412 1.611-.775 2.508-.968a.339.339 0 0 1 .407.242 3.257 3.257 0 0 0 1.49 2.03 3.26 3.26 0 0 0 2.47.369l9.281-2.316a1.463 1.463 0 0 0 1.013-.87c.181-.434.154-.93-.083-1.336zm-10.673 2.69c-.352.088-.72.033-1.034-.154a1.382 1.382 0 0 1-.633-.864 2.215 2.215 0 0 0-2.162-1.694c-.159 0-.319.017-.478.05-1.095.23-2.256.682-3.103 1.204-.66.402-2.382.848-3.466.286-.605-.313-.935-.918-1-1.854-.04-.555.043-.973.22-1.105.197-.149.78-.198 1.77.16 1.046.373 2.229-.133 2.696-1.156l.88-1.93 2.058.874a3.383 3.383 0 0 0 2.134.17l9.32-2.327c-.276 2.294.594 4.374 1.578 6.15l-8.78 2.196zM29.995 7.19c-1.205-1.528-2.426-3.377-2.344-5.478v-.154A1.48 1.48 0 0 0 27.018.27 1.487 1.487 0 0 0 25.6.11l-9.451 3.868a1.474 1.474 0 0 1-.935.06l-2.289-.604a1.738 1.738 0 0 0-2.129 1.199L10.157 6.8c-.044.143-.181.237-.313.21-1.596-.325-2.773-.116-3.5.621-.643.655-.83 1.617-.56 2.86.429 1.981 1.59 2.768 2.48 3.076.452.154.92.22 1.393.22 1.518 0 3.036-.682 3.823-1.337.61-.506 1.49-1.001 2.349-1.315.181-.066.369.011.435.182.33.814.957 1.452 1.765 1.793a3.224 3.224 0 0 0 2.498.017L29.384 9.5a1.485 1.485 0 0 0 .88-1 1.508 1.508 0 0 0-.27-1.31zm-10.183 4.193c-.336.137-.71.137-1.05-.006a1.387 1.387 0 0 1-.75-.759A2.22 2.22 0 0 0 15.17 9.37c-1.05.385-2.135.996-2.9 1.634-.593.495-2.238 1.183-3.394.781-.643-.22-1.05-.775-1.254-1.689-.12-.544-.093-.968.06-1.127.11-.11.38-.204.826-.204.258 0 .572.033.952.11 1.105.226 2.178-.434 2.503-1.53l.6-2.04 2.161.572a3.381 3.381 0 0 0 2.135-.137l8.895-3.642c.055 2.31 1.21 4.241 2.432 5.859L19.8 11.388z"/><path d="M32.162 45.496a.936.936 0 0 1-.935-.831l-9.76-.523a3.38 3.38 0 0 1-1.985-.786l-.424-.358a.959.959 0 0 1-.324-.566l-.182-1.084a4.174 4.174 0 0 1 2.327-4.45.94.94 0 0 1 .99.115c.187.148.506.324.919.297l9.165-.523a.952.952 0 0 1 .616-.71c1.078-.373 2.245-.054 3.196.875 1.337 1.304 1.887 3.406 1.337 5.116-.341 1.057-1.414 2.9-4.786 3.417-.05.005-.093.01-.143.01zm-.842-1.376zm-10.788-2.349.16.132c.242.204.556.33.87.347l10.187.55c.463.028.88.259 1.14.633 1.275-.358 2.1-1.018 2.398-1.942.38-1.172-.143-2.492-.859-3.185-.165-.16-.44-.385-.759-.462a1.467 1.467 0 0 1-1.243.803l-9.545.544a3.256 3.256 0 0 1-1.622-.335 2.29 2.29 0 0 0-.853 2.178l.121.743z"/></svg>
