<svg xmlns="http://www.w3.org/2000/svg" viewBox="0 0 52.917 52.917"><path d="M28.438 43.441h-3.425c-.175.005-.354.005-.542.005H12.185a.737.737 0 0 1-.735-.735c0-.404.33-.734.735-.734h1.703l.078-.414a20.497 20.497 0 0 1-5.064-2.837C1.667 33.116.073 23.231.01 22.813c0-.014 0-.023-.005-.037a.733.733 0 0 1 .656-.803 30.402 30.402 0 0 1 10.49 1.107l.281.082v-.29a29.845 29.845 0 0 1 1.617-10.371.06.06 0 0 1 .013-.028.728.728 0 0 1 .675-.44.72.72 0 0 1 .294.06 30.128 30.128 0 0 1 6.827 4.416l.211.18.124-.249a30.181 30.181 0 0 1 4.582-6.767.761.761 0 0 1 1.066 0 30.14 30.14 0 0 1 4.65 6.914l.124.253.212-.184a30.267 30.267 0 0 1 7.001-4.564.708.708 0 0 1 .285-.055c.303 0 .578.193.689.478A30.123 30.123 0 0 1 41.418 22.9v.294l.275-.083a30.377 30.377 0 0 1 10.565-1.13c.013 0 .022 0 .036.006.4.06.675.436.616.835-.065.418-1.653 10.303-8.894 15.914a20.48 20.48 0 0 1-5.064 2.837l.078.413h1.313c.404 0 .735.33.735.735 0 .404-.33.734-.735.734H28.947c-.174.005-.349.005-.5.005zm21.859-20.087c-3.017 0-6.006.46-8.884 1.368l-.133.042-.014.142a20.557 20.557 0 0 1-1.47 5.817c-2.208 5.193-6.505 8.733-9.72 10.785l-.697.445.831-.05c3.618-.225 8.792-1.162 12.906-4.348 5.431-4.206 7.493-11.138 8.131-13.925l.06-.257h-.262c-.243-.014-.496-.014-.74-.014zm-47.666 0c-.248 0-.505 0-.753.01h-.262l.06.26c.642 2.792 2.718 9.734 8.13 13.926 4.091 3.173 9.234 4.114 12.824 4.343l.129-.394c-3.214-2.053-7.507-5.588-9.715-10.78a20.365 20.365 0 0 1-1.47-5.84l-.014-.143-.137-.041a29.446 29.446 0 0 0-8.792-1.34zm23.497-11.882C24.32 13.69 20.105 19.58 20.1 26.426c0 6.864 4.215 12.745 6.028 14.958l.166.202.165-.202c1.814-2.208 6.028-8.085 6.028-14.958 0-6.873-4.214-12.75-6.028-14.954l-.165-.202zm12.31 2.415a30.198 30.198 0 0 0-6.088 4.242l-.115.101.06.143a21.488 21.488 0 0 1 1.662 8.057c0 5.345-2.337 10.06-4.302 13.072l.303.293c2.81-1.91 6.565-5.133 8.484-9.655 2.677-6.304 1.102-13.374.299-16.124l-.074-.253-.234.124zm-24.343.133c-.804 2.746-2.378 9.816.298 16.12a22.882 22.882 0 0 0 8.035 9.339l.298-.299a24.407 24.407 0 0 1-4.09-12.768c.036-2.828.62-5.592 1.73-8.205l.06-.142-.115-.1a30.553 30.553 0 0 0-5.908-4.078l-.235-.124-.073.253z"/></svg>