<svg xmlns="http://www.w3.org/2000/svg" viewBox="0 0 52.917 52.917"><path d="M51.342 25.492a5.385 5.385 0 0 0-3.804-1.58H40.38v-6.247a10.268 10.268 0 0 0-6.538-9.584c-.856-.335-2.14-.741-3.403-.741-.285 0-.565.022-.823.06a5.325 5.325 0 0 0-.582-3.848 5.351 5.351 0 0 0-4.666-2.7 5.38 5.38 0 0 0-5.182 3.968 5.35 5.35 0 0 0 .527 4.079 5.351 5.351 0 0 0 4.66 2.7c.473 0 .967-.065 1.433-.192l-2.739 4.66-6.521 3.217a3.511 3.511 0 0 0-1.8 2.169h-1.417a4.33 4.33 0 0 0-3.057 1.262 5.381 5.381 0 0 0-4.924-3.255 5.36 5.36 0 0 0-1.877.34 5.357 5.357 0 0 0-3.13 6.89 5.37 5.37 0 0 0 1.077 1.745h-.55a.87.87 0 0 0-.867.867v6.143c0 .477.39.867.868.867h2.728v14.881c0 .478.39.867.867.867H9.4a.87.87 0 0 0 .867-.867V42.91a3.07 3.07 0 0 0 2.805-1.823l2.08-4.775h9.788l-.873 1.153a3.309 3.309 0 0 0-.944 2.322v8.837a3.414 3.414 0 0 0 3.233 3.442h.099a3.343 3.343 0 0 0 3.337-3.337v-7.554l1.905-1.888-.29 1.51a3.5 3.5 0 0 0-.034 1.07l1.18 7.262a3.35 3.35 0 0 0 3.716 2.915 3.347 3.347 0 0 0 2.91-3.705c0-.01 0-.028-.006-.044l-1.11-6.758 1.016-5.225h3.574v14.881c0 .478.39.867.867.867h4.935a.87.87 0 0 0 .867-.867V36.312h2.728a.87.87 0 0 0 .868-.868v-6.142c0-1.422-.571-2.81-1.576-3.81zm-6.955 24.834V36.312h3.195v14.014zm-8.321-.01h-.01c-.067.01-.138.016-.204.016a1.593 1.593 0 0 1-1.575-1.389v-.055l-1.18-7.257a1.74 1.74 0 0 1 .016-.505l.78-4.007.812-.807h2.602l-.983 5.045a.724.724 0 0 0 0 .307l1.131 6.89a1.608 1.608 0 0 1-1.383 1.767zm-8.01-9.503v7.916a1.6 1.6 0 0 1-1.602 1.597h-.038a1.668 1.668 0 0 1-1.554-1.701v-8.838c0-.423.176-.834.478-1.13.027-.028.06-.061.082-.094l1.702-2.25h5.11l-3.925 3.886a.859.859 0 0 0-.258.614zM13.72 29.297v5.961l-2.229 5.133a1.316 1.316 0 0 1-1.493.757 1.326 1.326 0 0 1-.818-.604 1.343 1.343 0 0 1-.153-1.004c.022-.088.055-.176.098-.264l1.515-3.48.01-.033a.633.633 0 0 0 .04-.137c.01-.06.016-.115.016-.176v-9.639a2.634 2.634 0 0 1 2.624-2.624h1.383c.044.176.11.352.187.516a3.301 3.301 0 0 0 1.915 1.757c.363.126.736.192 1.12.192.51 0 1.021-.12 1.477-.34l4.303-2.125h8.707a8.12 8.12 0 0 1 5.434 2.224.858.858 0 0 0 .598.236h9.09a3.658 3.658 0 0 1 3.54 2.783H14.592a.87.87 0 0 0-.867.867zm8.113-25.613a3.6 3.6 0 0 1 2.558-1.06c.966 0 1.872.374 2.558 1.06a3.6 3.6 0 0 1 1.06 2.558 3.628 3.628 0 0 1-3.618 3.618 3.587 3.587 0 0 1-2.558-1.06 3.6 3.6 0 0 1-1.06-2.558c0-.966.374-1.872 1.06-2.558zm2.596 13.482 4.276-7.273a1.613 1.613 0 0 1 1.356-.79h.022c4.715 0 8.558 3.848 8.563 8.563v6.12a9.827 9.827 0 0 0-5.209-2.267l.362-2.36a4.934 4.934 0 0 0-2.86-5.226.861.861 0 0 0-1.097.352l-3.025 5.138c-.159.269-.39.483-.67.62l-7.503 3.7a1.57 1.57 0 0 1-.703.164c-.615 0-1.164-.34-1.433-.889l-.022-.044a1.372 1.372 0 0 1-.126-.642c.022-.642.39-1.213.966-1.493l6.746-3.332a.835.835 0 0 0 .363-.34zm7.647 1.729-.39 2.547H27.19a3.36 3.36 0 0 0 1.115-1.142l2.58-4.391a3.161 3.161 0 0 1 1.19 2.98zM8.97 30.165v4.402H1.736v-4.403zm0-5.358a3.624 3.624 0 0 1-3.618 3.617 3.628 3.628 0 0 1-3.617-3.617 3.624 3.624 0 0 1 3.617-3.618 3.624 3.624 0 0 1 3.618 3.618zm-1.443 13.76a3.18 3.18 0 0 0 .16 2.899c.213.356.504.664.85.9v7.954H5.342V36.307h3.179l-.988 2.267zm43.656-8.404v4.403H15.459v-4.403z"/></svg>