<svg xmlns="http://www.w3.org/2000/svg" viewBox="0 0 52.917 52.917"><path d="m52.11 33.776-5.767-1.741a1.131 1.131 0 0 0-1.065.225 1.14 1.14 0 0 0-.39 1.021l.357 2.598-3.844-1.082a1.156 1.156 0 0 0-.307-.044c-.506 0-.956.34-1.093.83a1.138 1.138 0 0 0 .785 1.4l5.513 1.554a1.136 1.136 0 0 0 1.433-1.247l-.35-2.559 4.068 1.23c.11.033.22.05.33.05.494 0 .944-.335 1.087-.808a1.139 1.139 0 0 0-.758-1.416zm-14.564-5.415 5.739-.055a1.137 1.137 0 0 0 1.027-1.598l-1.06-2.361 4.261.038a1.14 1.14 0 0 0 1.137-1.125c0-.626-.5-1.143-1.126-1.148l-6.03-.055c-.384 0-.74.192-.95.516-.214.324-.247.73-.087 1.088l1.07 2.394-3.992.038a1.136 1.136 0 0 0-1.126 1.148 1.142 1.142 0 0 0 1.137 1.126zm-3.026 3.015-.999-11.082C33.081 3.628 19.694 2.596 18.173 2.535h-.022c-.066-.005-.418-.038-1-.038-2.696 0-9.489.659-14.245 6.76C.611 12.2-.328 15.747.1 19.806a20.933 20.933 0 0 0 1.878 6.622l-.055 10.736c0 .62.27 1.202.747 1.603a2.125 2.125 0 0 0 1.697.462l3.174-.528 3.646 6.392a2.11 2.11 0 0 0 1.835 1.055c.307 0 .598-.066.878-.192l1.422-.654-.087 4.025a1.043 1.043 0 0 0 .302.764c.203.208.472.324.763.33h.005c.61-.017 1.093-.479 1.11-1.05l.12-5.425a1.259 1.259 0 0 0-.587-1.099 1.284 1.284 0 0 0-1.247-.087l-2.657 1.186-3.905-6.837a1.294 1.294 0 0 0-1.334-.632l-3.701.555.054-10.812-.022-.335-.115-.226c-.181-.351-4.365-8.72.604-15.101C8.782 5.22 14.872 4.644 17.294 4.644c.269 0 .527.005.73.022h.022c.527 0 12.883.197 13.3 15.75l1.01 11.235 4.575 17.95a1.083 1.083 0 0 0 1.318.78c.286-.07.527-.246.676-.494s.186-.532.115-.807l-4.525-17.71z"/></svg>