<svg xmlns="http://www.w3.org/2000/svg" viewBox="0 0 52.917 52.917"><path d="M43.505 52.911a7.28 7.28 0 0 1-3.078-.687l-.075-.035-.075.035a7.28 7.28 0 0 1-3.079.687h-.092a6.623 6.623 0 0 1-5.418-3.384l-.052-.093H4.462a3.308 3.308 0 0 1-3.298-3.298V5.614a3.308 3.308 0 0 1 3.298-3.298h8.282v-.179A2.14 2.14 0 0 1 14.881 0h10.42a2.14 2.14 0 0 1 2.136 2.137v.18h8.283a3.308 3.308 0 0 1 3.298 3.297v22.133l.052.052c.271.283.52.589.733.918l.185.283.127-.312a5.042 5.042 0 0 1 4.719-3.211h.144a.982.982 0 1 1 .006 1.963c-2.848 0-3.471 2.773-3.604 3.968l-.029.255.248-.064c.832-.214 1.687-.33 2.542-.33 4.909 0 7.612 3.183 7.612 8.965 0 5.186-2.905 12.683-8.155 12.683h-.093zm-2.76-2.691c.871.473 1.86.727 2.853.727 1.617 0 3.182-1.27 4.412-3.575 1.115-2.09 1.78-4.759 1.78-7.144 0-2.969-.775-5.025-2.305-6.117-1.248-.883-2.663-.883-3.345-.883a8.257 8.257 0 0 0-3.39.722.952.952 0 0 1-.797 0 8.25 8.25 0 0 0-3.384-.722c-.688 0-2.103 0-3.35.883-1.53 1.086-2.305 3.142-2.305 6.117 0 2.385.664 5.06 1.78 7.144 1.23 2.305 2.795 3.575 4.412 3.575.993 0 1.98-.254 2.853-.727.127-.052.26-.081.393-.081s.271.029.392.08zM4.455 4.28c-.733 0-1.333.6-1.333 1.334v40.528c0 .734.6 1.334 1.334 1.334H30.55l-.104-.248a18.262 18.262 0 0 1-1.496-7.006c0-3.875 1.236-6.636 3.57-7.988l.15-.086-.087-.15a10.955 10.955 0 0 1-1.409-5.69.985.985 0 0 1 .93-.924h.323c1.514 0 2.986.295 4.384.878l.243.104V5.614c0-.733-.6-1.334-1.334-1.334h-8.283v.179A2.14 2.14 0 0 1 25.3 6.596H14.88a2.14 2.14 0 0 1-2.136-2.137v-.18H4.462Zm32.108 26.984c.71 0 1.426.08 2.12.231l.294.063-.092-.288a5.588 5.588 0 0 0-1.277-2.16h-.007v-.011a7.23 7.23 0 0 0-4.24-1.704l-.201-.011.01.202a7.695 7.695 0 0 0 1.33 3.789l.063.092.115-.023a9.925 9.925 0 0 1 1.848-.179h.023zM14.702 4.632h10.777V1.964H14.702zm-4.453 30.912a3.3 3.3 0 0 1-3.298-3.298 3.3 3.3 0 0 1 3.298-3.298 3.308 3.308 0 0 1 3.298 3.298 3.3 3.3 0 0 1-3.298 3.298zm0-4.632c-.734 0-1.334.6-1.334 1.334 0 .733.6 1.334 1.334 1.334.733 0 1.334-.6 1.334-1.334 0-.734-.6-1.334-1.334-1.334zm8.103 2.316a.982.982 0 1 1 0-1.964h8.103a.982.982 0 1 1 0 1.964zm-8.103-6.948a3.3 3.3 0 0 1-3.298-3.298 3.3 3.3 0 0 1 3.298-3.298 3.308 3.308 0 0 1 3.298 3.298 3.3 3.3 0 0 1-3.298 3.298zm0-4.633c-.734 0-1.334.601-1.334 1.335 0 .733.6 1.334 1.334 1.334.733 0 1.334-.6 1.334-1.334 0-.734-.6-1.335-1.334-1.335zm8.103 2.316a.982.982 0 1 1 0-1.963h13.896a.982.982 0 1 1 0 1.963zm-8.103-6.948a3.3 3.3 0 0 1-3.299-3.298 3.3 3.3 0 0 1 3.298-3.297 3.308 3.308 0 0 1 3.298 3.297 3.3 3.3 0 0 1-3.298 3.298zm0-4.632c-.734 0-1.334.6-1.334 1.334 0 .734.6 1.335 1.334 1.335.733 0 1.334-.601 1.334-1.335 0-.733-.6-1.334-1.334-1.334zm8.103 2.316a.982.982 0 1 1 0-1.963h13.896a.982.982 0 1 1 0 1.963z"/></svg>